<svg version="1" xmlns="http://www.w3.org/2000/svg" width="666.667" height="666.667" viewBox="0 0 500.000000 500.000000"><path d="M53.5 52.4c-4.1 1.8-8.3 6.9-9 10.9-.3 1.8-.4 88.3-.3 192.4l.3 189.2 2.1 2.7c1.1 1.5 3.3 3.7 4.8 4.8l2.7 2.1h383.8l2.7-2.1c1.5-1.1 3.7-3.3 4.8-4.8l2.1-2.7V61.1l-2.1-2.7c-1.1-1.5-3.3-3.7-4.8-4.8l-2.7-2.1-190.7-.2c-157-.2-191.2 0-193.7 1.1zM343 116.1c5.6 2.5 8.6 5.3 11.1 10.1 3 5.9 2.3 11.4-4.5 34.2-1.4 4.8-2.6 9.3-2.6 10 0 .8 4.1 1.1 13.3 1.2 11.6 0 13.9.3 19.1 2.5 8.7 3.5 11.9 8 12.4 16.9.2 3.9.1 8.1-.2 9.5-.9 3.7-6.6 9.6-11.1 11.6-5.4 2.4-18.3 3.9-33.5 3.9h-12.6l-11 33.5-11.1 33.5h11.1c24.3.1 38.1 3.1 43.4 9.6 7 8.5 6.8 19.5-.6 27-5.2 5.2-7.5 5.6-38.2 6.3l-28.5.6-2.8 10c-1.5 5.5-4.8 17.2-7.1 26.1-4.8 17.7-6.3 21.3-10.9 26.2-5.7 6-20.7 8.2-29.3 4.3-4.8-2.2-8.4-8.4-8.4-14.7 0-4.4 3.9-20.8 9.4-39.1 2-6.7 3.6-12.7 3.6-13.3 0-.7-11.5-1-35-1-33.9 0-35 .1-36 2-1.8 3.3-16.6 41-19.5 49.5-4.8 14.4-9.7 18.7-21.5 18.7-11.5 0-20.4-6.7-22.3-16.9-.7-3.7.7-8.3 10.7-34.8 3.5-9.4 6.2-17.3 5.9-17.8-.2-.4-5.8-.7-12.4-.7-13.5 0-16.6-.9-21.6-6.1-4.4-4.7-6.5-10.1-6.4-17.1 0-9.8 4.9-15.5 15.2-17.7 2.7-.6 13.5-1.1 23.8-1.1h18.8l5.8-14.8c9.4-23.9 18.3-47.8 18.7-49.8.3-1.8-.9-1.9-23.2-2.4-22.1-.5-23.8-.6-28.3-2.9-7.4-3.6-10.1-7.9-10.5-16.8-.5-8.9.7-12.2 6-16.7 5.2-4.5 10.5-5.4 36.8-6.1 11.8-.3 24.3-.8 27.7-1.1 7.1-.6 5.5 1.7 12.8-19.6 8.8-25.5 15.3-33.8 26.4-33.8 12.9 0 20.1 7.1 20.1 19.7 0 6.3-3.1 21.1-5.6 27.2-2.7 6.5-4.4 6.1 29.4 6.1h30.8l2.9-10.3c5.8-21 10.6-35 13.2-39 5.6-8.2 16.7-11 26.3-6.6z"/><path d="M219.1 232.7c-3.5 9.3-8.5 22.6-11.1 29.8-2.7 7.1-5.6 14.7-6.4 16.8L200 283l33.6-.2 33.7-.3 4.5-14c11.1-34.9 16.2-51.1 16.2-51.8 0-.4-14.1-.7-31.3-.7h-31.4l-6.2 16.7z"/></svg>